<?xml version="1.0" encoding="UTF-8" standalone="no"?>
<svg
   sodipodi:docname="enigma_logo_2.svg"
   id="svg3219"
   version="1.0"
   viewBox="481.8906 877.8125 239.9995 240.0005"
   height="64"
   width="64"
   inkscape:version="1.2.2 (b0a84865, 2022-12-01)"
   inkscape:dataloss="true"
   xmlns:inkscape="http://www.inkscape.org/namespaces/inkscape"
   xmlns:sodipodi="http://sodipodi.sourceforge.net/DTD/sodipodi-0.dtd"
   xmlns="http://www.w3.org/2000/svg"
   xmlns:svg="http://www.w3.org/2000/svg">
  <sodipodi:namedview
     id="namedview25"
     pagecolor="#505050"
     bordercolor="#eeeeee"
     borderopacity="1"
     inkscape:showpageshadow="0"
     inkscape:pageopacity="0"
     inkscape:pagecheckerboard="0"
     inkscape:deskcolor="#505050"
     showgrid="false"
     inkscape:zoom="8"
     inkscape:cx="-5"
     inkscape:cy="30.4375"
     inkscape:window-width="1920"
     inkscape:window-height="967"
     inkscape:window-x="0"
     inkscape:window-y="25"
     inkscape:window-maximized="1"
     inkscape:current-layer="g18909" />
  <defs
     id="defs3223" />
  <desc
     id="desc3128">
  Exported by the ArtWorks SVGExport module.
  Source document: SCSI::Develop.$.Develop.Web.!WebXpress.^.Input.cm.Pages.crypto.enigma.artwork.enigma_logo
</desc>
  <g
     transform="matrix(1,0,0,-1,0,2635.8125)"
     stroke-miterlimit="16"
     fill-rule="evenodd"
     clip-rule="evenodd"
     stroke-linejoin="bevel"
     stroke-linecap="butt"
     id="g3217">
    <defs
       id="defs3135" />
    <defs
       id="defs3146" />
    <defs
       id="defs3157" />
    <defs
       id="defs3168" />
    <defs
       id="defs3177" />
    <defs
       id="defs3186" />
    <defs
       id="defs3195" />
    <defs
       id="defs3204" />
    <defs
       id="defs3213" />
    <g
       id="g8931"
       transform="matrix(0.95860728,0,0,0.94749814,63.16306,69.192535)">
      <g
         id="g8192"
         transform="translate(-3.1992304,-4.1425631)">
        <g
           id="g18909"
           transform="matrix(0.11635237,0,0,0.11635237,387.26921,1506.0555)">
          <path
             d="m 1529.17,881.955 c 500,0 1044.03,304.185 1044.03,440.185 0,156 -544,440 -1044,440 -500,0 -1044.001,-284 -1044.11,-448.19 0.109,-175.81 544.08,-431.995 1044.08,-431.995 z"
             fill="url(#_Fill0)"
             id="path3137"
             style="fill:none;stroke:#f2f2f2;stroke-width:30.0408;stroke-dasharray:none;stroke-opacity:1"
             transform="translate(-1.1621467e-5)" />
          <circle
             cx="2455.3438"
             cy="1314.3828"
             stroke="#000000"
             stroke-width="1.25"
             fill="url(#_Fill1)"
             id="circle3148"
             r="53.132801"
             style="fill:#f2f2f2;stroke:none" />
          <circle
             cx="602.94531"
             cy="1312.9062"
             stroke="#000000"
             stroke-width="1.25"
             fill="url(#_Fill2)"
             id="circle3159"
             r="53.132801"
             style="fill:#f2f2f2;stroke:none" />
          <g
             id="g23707">
            <path
               id="path3139"
               style="fill:#f2f2f2"
               d="m 1519.4915,1695.4901 c -308.4994,-1.5 -615.5125,-101.5044 -881.51196,-297.504 60.89048,-45.2342 67.13967,-120.7062 -6.17269,-176.1903 527.99895,-363.9993 1222.04315,-367.89314 1788.83095,9.9655 -70.867,36.9922 -89.2706,118.0237 -10.638,170.211 -271.9996,197.9996 -582.0089,295.0178 -890.5083,293.5178 z m 21.079,-54.7439 c 62.7314,1.6611 127.3312,-13.4159 145.7805,-54.744 v -48.7646 h -75.2543 c 0,56.086 -92.9887,70.8626 -126.934,32.4876 v -491.4993 c 4.4219,-44.2813 134.2887,-53.1644 134.2887,16.2106 l 0.1314,161.3749 c 0,8 -8.3991,18.8016 -17.9928,18.8016 l -85.4325,-0.066 10.3097,45.7749 h 162.3284 V 1057.564 c 0,-38.3748 -48.6917,-63.44708 -75.2542,-63.44708 h -140.1987 c -28.039,1.4765 -66.4549,28.03208 -66.4549,69.35998 v 531.3614 c 11.0703,25.8321 71.9515,44.2467 134.6827,45.9079 z m 182.4226,-19.0674 c 109.0779,-11.4532 313.0996,-52.8053 313.0996,-94.8053 l 0.066,-445.7244 -64.9445,-19.1338 v 416.2265 c -0.2266,18.7656 -51.5782,85.4042 -51.6798,29.4979 v -460.5398 l -63.4342,-14.749 v 467.9143 c 0.2344,42.625 -61.1229,91.278 -60.5448,35.4108 v -513.6228 l -72.2993,-11.8257 z m -376.1398,-1.7274 v -609.6239 l -73.8096,5.9129 v 597.7982 z m -236.926,-45.0441 c 46.8641,7.748 90.0662,-0.763 109.992,-45.0441 v -504.7867 l -81.1643,20.6618 v 428.0522 c 2.9531,66.4217 -64.9356,42.8241 -90.0292,25.1131 v -423.6009 l -70.85459,25.0466 v 422.1394 c 34.68749,20.664 85.19189,44.6706 132.05609,52.4186 z m -177.82589,-64.2444 -1.44467,-63.4471 -126.99971,-67.8984 v -45.7085 h 84.18491 v -53.1494 h -85.62958 v -47.2366 l 132.84406,-63.5136 v -58.9958 l -194.83358,90.0218 v 197.7823 z m 1220.54989,-7.308 c 28,-4 81.3526,-37.3594 138.6885,-68.0313 v -238.6409 l -65.3386,-36.0088 v 86.6336 l -82.6745,-33.2848 v -89.3575 l -66.6519,-26.6411 v 197.3172 c 0,94.664 41.5859,212.9199 75.9765,208.0136 z" />
            <g
               id="g20896"
               style="fill:#f2f2f2;fill-opacity:1;stroke:none">
              <path
                 d="m 2141.0977,1269.6426 84.3856,45.309 v 95.4349 c -71.9209,68.4368 -83.4271,-26.0342 -84.3856,-140.7439 z"
                 style="fill:#f2f2f2;fill-opacity:1;stroke:none;stroke-width:0;stroke-dasharray:none"
                 id="path21387" />
            </g>
          </g>
        </g>
      </g>
    </g>
  </g>
</svg>
